<svg width="24" height="24" viewBox="0 0 24 24" fill="none" xmlns="http://www.w3.org/2000/svg">
<g clip-path="url(#clip0)">
<path d="M23.9759 7.05607C23.9196 5.78085 23.7134 4.90416 23.418 4.14449C23.1133 3.33812 22.6444 2.61617 22.0302 2.01602C21.43 1.40652 20.7033 0.932921 19.9063 0.632936C19.1422 0.337529 18.2701 0.131312 16.9949 0.0750879C15.7101 0.0141019 15.3023 0 12.0438 0C8.7854 0 8.37754 0.0141019 7.09757 0.0703262C5.82235 0.126551 4.94566 0.332951 4.18617 0.628174C3.37962 0.932922 2.65768 1.40176 2.05752 2.01602C1.44803 2.61617 0.974608 3.34288 0.67444 4.13991C0.379033 4.90416 0.172816 5.77609 0.116592 7.0513C0.0556058 8.33604 0.0415039 8.7439 0.0415039 12.0023C0.0415039 15.2608 0.0556058 15.6686 0.11183 16.9486C0.168054 18.2238 0.374455 19.1005 0.669861 19.8602C0.974608 20.6666 1.44803 21.3885 2.05752 21.9887C2.65768 22.5982 3.38438 23.0718 4.18141 23.3718C4.94566 23.6672 5.81759 23.8734 7.09299 23.9296C8.37278 23.986 8.78082 23.9999 12.0393 23.9999C15.2977 23.9999 15.7056 23.986 16.9855 23.9296C18.2608 23.8734 19.1374 23.6672 19.8969 23.3718C21.5099 22.7482 22.7851 21.4729 23.4087 19.8602C23.7039 19.096 23.9103 18.2238 23.9665 16.9486C24.0227 15.6686 24.0368 15.2608 24.0368 12.0023C24.0368 8.7439 24.0321 8.33604 23.9759 7.05607ZM21.8146 16.8549C21.763 18.027 21.5661 18.6599 21.402 19.0819C20.9987 20.1274 20.1689 20.9572 19.1233 21.3605C18.7014 21.5246 18.0639 21.7215 16.8964 21.7729C15.6305 21.8293 15.2508 21.8433 12.0486 21.8433C8.84638 21.8433 8.46197 21.8293 7.20068 21.7729C6.02857 21.7215 5.39564 21.5246 4.97368 21.3605C4.45337 21.1682 3.97977 20.8634 3.59536 20.4649C3.19684 20.0758 2.8921 19.6069 2.6998 19.0866C2.5357 18.6647 2.33883 18.027 2.28736 16.8596C2.23096 15.5937 2.21704 15.2139 2.21704 12.0117C2.21704 8.80946 2.23096 8.42505 2.28736 7.16394C2.33883 5.99183 2.5357 5.3589 2.6998 4.93694C2.8921 4.41645 3.19684 3.94303 3.60012 3.55843C3.98911 3.15992 4.45795 2.85517 4.97844 2.66306C5.4004 2.49896 6.03809 2.30209 7.20544 2.25044C8.47131 2.19422 8.85114 2.18011 12.0532 2.18011C15.2602 2.18011 15.6398 2.19422 16.9011 2.25044C18.0732 2.30209 18.7062 2.49896 19.1281 2.66306C19.6484 2.85517 20.122 3.15992 20.5064 3.55843C20.9049 3.94761 21.2097 4.41645 21.402 4.93694C21.5661 5.3589 21.763 5.99641 21.8146 7.16394C21.8708 8.42981 21.8849 8.80946 21.8849 12.0117C21.8849 15.2139 21.8708 15.589 21.8146 16.8549Z" fill="black"/>
<path d="M12.0442 5.83713C8.64049 5.83713 5.87891 8.59853 5.87891 12.0024C5.87891 15.4063 8.64049 18.1677 12.0442 18.1677C15.448 18.1677 18.2094 15.4063 18.2094 12.0024C18.2094 8.59853 15.448 5.83713 12.0442 5.83713ZM12.0442 16.0016C9.83604 16.0016 8.04492 14.2107 8.04492 12.0024C8.04492 9.79408 9.83604 8.00314 12.0442 8.00314C14.2525 8.00314 16.0434 9.79408 16.0434 12.0024C16.0434 14.2107 14.2525 16.0016 12.0442 16.0016Z" fill="black"/>
<path d="M19.893 5.59332C19.893 6.38815 19.2485 7.03262 18.4535 7.03262C17.6586 7.03262 17.0142 6.38815 17.0142 5.59332C17.0142 4.7983 17.6586 4.15401 18.4535 4.15401C19.2485 4.15401 19.893 4.7983 19.893 5.59332Z" fill="black"/>
</g>
<defs>
<clipPath id="clip0">
<rect width="24" height="24" fill="white"/>
</clipPath>
</defs>
</svg>
