<svg width="24" height="26" viewBox="0 0 24 26" fill="none" xmlns="http://www.w3.org/2000/svg">
<path d="M12.658 25.3693C14.6864 25.3693 17.2717 24.7727 18.5046 24.2557L17.9478 22.4261C17.2319 22.6648 14.9251 23.4602 12.7376 23.4602C5.93643 23.4602 2.31712 19.642 2.31712 12.8807C2.31712 6.23864 6.01598 2.26136 12.2603 2.26136C18.5842 2.26136 21.5671 6.71591 21.5671 11.1705C21.5671 15.7045 21.0898 17.733 19.0614 17.733C17.8683 17.733 17.2319 16.7386 17.2319 15.625V6.63636H15.1239V7.75H15.0046C14.7262 6.875 13.1751 6.11932 11.1864 6.31818C8.20348 6.63636 5.93643 9.10227 5.93643 12.6818C5.93643 16.4602 7.72621 19.3636 11.1864 19.483C13.4535 19.5625 14.6467 18.4489 15.1239 17.2955H15.2433C15.4819 19.0057 17.6296 19.6023 19.0217 19.6023C23.2376 19.6023 23.6353 15.0682 23.6353 11.2102C23.6353 5.76136 19.8171 0.392045 12.3796 0.392045C4.70348 0.392045 0.129617 5.04545 0.129617 12.8011C0.129617 20.8352 4.54439 25.3693 12.658 25.3693ZM11.5046 17.4545C8.91939 17.4545 8.00462 15.108 8.00462 12.5625C8.00462 10.2557 9.31712 8.26705 11.5842 8.26705C13.9705 8.26705 15.2433 9.22159 15.2433 12.5625C15.2433 15.8636 14.1694 17.4545 11.5046 17.4545Z" fill="black"/>
</svg>
