<svg width="24" height="24" viewBox="0 0 24 24" fill="none" xmlns="http://www.w3.org/2000/svg">
<path d="M23.1009 16.9225L20.2094 14.0387C19.6384 13.4479 18.9483 13.138 18.2169 13.138C17.4904 13.138 16.7955 13.4479 16.2074 14.0315L14.7009 15.5327C14.6256 15.4939 14.5527 15.4576 14.4847 15.4237C14.3073 15.3366 14.1372 15.2494 13.9914 15.1574C12.463 14.1913 11.0707 12.9249 9.73186 11.2906C9.14141 10.5472 8.73319 9.92252 8.43675 9.30751C8.81823 8.95157 9.17785 8.58838 9.51803 8.23971C9.66139 8.09443 9.81205 7.94431 9.95784 7.79903C10.5604 7.19855 10.8788 6.49879 10.8788 5.77724C10.8788 5.05085 10.5604 4.35109 9.95784 3.75545L8.52179 2.32446C8.35899 2.16223 8.20348 2.00484 8.04311 1.83777L8.03582 1.83051C7.72237 1.50847 7.38462 1.16707 7.04687 0.854722C6.47342 0.2954 5.7882 0 5.0641 0C4.34486 0 3.65236 0.297821 3.0619 0.859564L1.25166 2.66344C0.520268 3.38499 0.107192 4.26634 0.0221471 5.28329C-0.0750472 6.49395 0.14607 7.7724 0.717087 9.30024C1.57726 11.6295 2.87237 13.7845 4.79196 16.0823C7.11733 18.8523 9.92625 21.0436 13.1361 22.5956L13.1385 22.5981C14.3802 23.184 16.0422 23.8717 17.8816 23.9903H17.9035C18.0104 23.9952 18.1197 24 18.2364 24C19.5558 24 20.6201 23.5448 21.4875 22.6077C21.5021 22.5908 21.5215 22.5714 21.541 22.5448C21.784 22.2567 22.061 21.9855 22.3574 21.7022L22.4254 21.6368C22.7024 21.3729 22.9211 21.155 23.1155 20.954C23.6963 20.3511 24.0024 19.6513 24 18.9274C24 18.201 23.689 17.5085 23.1009 16.9225ZM2.02678 5.45279C2.07538 4.90315 2.28192 4.46489 2.67312 4.07506L4.46393 2.29056C4.66075 2.1017 4.86728 2 5.05924 2C5.29251 2 5.49905 2.15981 5.63026 2.29298L5.64484 2.30751C5.91698 2.55932 6.17941 2.82567 6.45641 3.10654L6.58276 3.23487C6.66538 3.31961 6.75042 3.40436 6.83547 3.49153C6.91808 3.57385 7.0007 3.6586 7.08331 3.74334L8.52422 5.17918C8.67487 5.3293 8.85468 5.5569 8.85468 5.7845C8.85468 6.01211 8.67487 6.23971 8.52422 6.38983C8.4489 6.46489 8.37357 6.53995 8.29824 6.61743C8.22535 6.69249 8.15002 6.76755 8.0747 6.84262L7.97264 6.94431C7.56686 7.35351 7.18051 7.74092 6.765 8.11138L6.7237 8.15254C6.09436 8.77966 6.31062 9.42857 6.38109 9.64165C6.38595 9.6586 6.39081 9.6707 6.39566 9.68523L6.40538 9.70944C6.79902 10.6489 7.33845 11.5254 8.15488 12.5496L8.15731 12.5521C9.62738 14.3584 11.1776 15.7651 12.9004 16.8571C13.0899 16.9806 13.2819 17.0775 13.469 17.1695C13.503 17.1864 13.5394 17.2034 13.5735 17.2228L13.5759 17.2252C13.7533 17.3123 13.9234 17.3995 14.0692 17.4915L14.1129 17.5157C14.1275 17.523 14.1421 17.5327 14.1566 17.54C14.3705 17.6489 14.5916 17.7046 14.8127 17.7046C15.1869 17.7046 15.5271 17.5545 15.8235 17.2567L17.6265 15.46C17.7674 15.3196 17.9812 15.155 18.2145 15.155C18.4526 15.155 18.6592 15.339 18.7636 15.4504L18.7685 15.4552L21.6795 18.3511C22.0974 18.7676 22.0901 19.1356 21.66 19.5811L21.6552 19.586C21.4511 19.8039 21.2348 20.0121 21.0307 20.2082L20.9724 20.2639C20.6468 20.5787 20.3115 20.9031 19.998 21.276C19.5218 21.7845 18.9799 22.0097 18.2412 22.0097C18.1732 22.0097 18.0954 22.0048 18.0177 22C16.5087 21.9031 15.0873 21.3099 14.0157 20.8015C11.0659 19.3777 8.48291 17.3632 6.34221 14.8111C4.5757 12.6925 3.38993 10.724 2.60509 8.61501C2.14098 7.37046 1.95388 6.3632 2.02678 5.45279Z" fill="black"/>
</svg>
